<?xml version="1.0" encoding="utf-8"?>
<!-- Generator: Adobe Illustrator 16.0.0, SVG Export Plug-In . SVG Version: 6.00 Build 0)  -->
<!DOCTYPE svg PUBLIC "-//W3C//DTD SVG 1.1//EN" "http://www.w3.org/Graphics/SVG/1.1/DTD/svg11.dtd">
<svg version="1.1" id="Layer_1" xmlns="http://www.w3.org/2000/svg" xmlns:xlink="http://www.w3.org/1999/xlink" x="0px" y="0px"
	 width="727.688px" height="727.688px" viewBox="0 0 727.688 727.688" enable-background="new 0 0 727.688 727.688"
	 xml:space="preserve">
<path fill-rule="evenodd" clip-rule="evenodd" fill="#FFFFFF" d="M363.844,0c200.944,0,363.844,162.898,363.844,363.844
	S564.788,727.688,363.844,727.688C162.898,727.688,0,564.79,0,363.844S162.898,0,363.844,0z"/>
<path fill="#EF406E" d="M492.564,228.248c-40.589-28.404-85.211-12.882-102.19-2.698c-15.875,9.46-25.003,21.557-26.528,23.521
	c-1.503-1.936-10.688-14.09-26.505-23.506c-19.006-11.401-72.466-29.429-116.269,14.556c-30.977,31.104-36.93,79.178-14.493,116.879
	c3.999,6.78,8.886,13.087,14.52,18.739L357.98,513.188c3.246,3.263,8.481,3.261,11.727,0l136.884-137.447
	c5.639-5.661,10.523-11.966,14.503-18.712c14.663-24.638,17.213-53.687,8.592-79.539l-17.488,12.405
	c5.046,19.465,2.438,40.688-8.417,58.919c-3.207,5.432-7.136,10.499-11.68,15.058L364.006,492.42L235.913,363.873
	c-4.539-4.554-8.468-9.621-11.695-15.087c-18.063-30.336-13.265-68.999,11.673-94.025c35.36-35.486,78.561-20.946,93.928-11.733
	c10.586,6.299,20.411,15.821,27.154,27.532c1.458,2.532,4.136,4.092,7.032,4.092h0.002c2.896,0,5.573-1.557,7.032-4.09
	c6.763-11.733,16.549-21.22,27.183-27.548c12.842-7.7,45.237-19.155,76.2-1.826L492.564,228.248z"/>
</svg>
