<?xml version="1.0" encoding="utf-8"?>
<!-- Generator: Adobe Illustrator 16.0.0, SVG Export Plug-In . SVG Version: 6.00 Build 0)  -->
<!DOCTYPE svg PUBLIC "-//W3C//DTD SVG 1.1//EN" "http://www.w3.org/Graphics/SVG/1.1/DTD/svg11.dtd">
<svg version="1.1" id="Layer_1" xmlns="http://www.w3.org/2000/svg" xmlns:xlink="http://www.w3.org/1999/xlink" x="0px" y="0px"
	 width="307.2px" height="288px" viewBox="154.467 92.227 307.2 288" enable-background="new 154.467 92.227 307.2 288"
	 xml:space="preserve">
<path fill="#FF3B6D" d="M301.03,377.03c1.814,2.035,4.426,3.197,7.152,3.197h0.009c2.727,0,5.338-1.172,7.152-3.207L441.91,235.219
	c12.739-15.552,19.757-35.088,19.757-55.027c0-48.509-40.253-87.965-89.741-87.965c-24.364,0-47.078,9.408-63.858,26.16
	c-16.781-16.742-39.495-26.16-63.859-26.16c-49.479,0-89.741,39.456-89.741,87.965c0,19.949,7.018,39.504,20.103,55.459
	C175.798,237.149,271.683,344.246,301.03,377.03z M244.198,111.427c22.282,0,42.797,9.965,56.275,27.322
	c3.638,4.685,11.53,4.685,15.168,0c13.479-17.367,33.993-27.322,56.275-27.322c38.899,0,70.541,30.845,70.541,68.765
	c0,15.744-5.328,30.566-15.14,42.557L308.183,356.228c-43.93-49.066-116.784-130.464-119.088-133.143
	c-10.089-12.317-15.417-27.149-15.417-42.893C173.667,142.282,205.309,111.427,244.198,111.427z"/>
</svg>
