<?xml version="1.0" encoding="utf-8"?>
<!-- Generator: Adobe Illustrator 16.0.0, SVG Export Plug-In . SVG Version: 6.00 Build 0)  -->
<!DOCTYPE svg PUBLIC "-//W3C//DTD SVG 1.1//EN" "http://www.w3.org/Graphics/SVG/1.1/DTD/svg11.dtd">
<svg version="1.1" id="Layer_1" xmlns="http://www.w3.org/2000/svg" xmlns:xlink="http://www.w3.org/1999/xlink" x="0px" y="0px"
	 width="192px" height="307.2px" viewBox="217.856 89.29 192 307.2" enable-background="new 217.856 89.29 192 307.2"
	 xml:space="preserve">
<path fill="#FFFFFF" d="M409.855,300.489v-115.2c0-52.934-43.064-96-96-96c-52.935,0-96,43.066-96,96v115.2
	c0,52.935,43.065,96,96,96C366.791,396.489,409.855,353.414,409.855,300.489z M237.056,300.489v-115.2
	c0-42.346,34.454-76.8,76.8-76.8c42.345,0,76.8,34.454,76.8,76.8v115.2c0,42.346-34.455,76.801-76.8,76.801
	C271.51,377.29,237.056,342.835,237.056,300.489z"/>
<path fill="#FFFFFF" d="M339.027,196.675v-28.8c0-13.238-10.762-24-24-24c-13.239,0-24,10.762-24,24v28.8c0,13.238,10.761,24,24,24
	C328.266,220.675,339.027,209.914,339.027,196.675z M310.227,196.675v-28.8c0-2.64,2.16-4.8,4.8-4.8c2.64,0,4.8,2.16,4.8,4.8v28.8
	c0,2.64-2.16,4.8-4.8,4.8C312.387,201.475,310.227,199.325,310.227,196.675z"/>
</svg>
