<?xml version="1.0" encoding="utf-8"?>
<!-- Generator: Adobe Illustrator 16.0.0, SVG Export Plug-In . SVG Version: 6.00 Build 0)  -->
<!DOCTYPE svg PUBLIC "-//W3C//DTD SVG 1.1//EN" "http://www.w3.org/Graphics/SVG/1.1/DTD/svg11.dtd">
<svg version="1.1" id="Layer_1" xmlns="http://www.w3.org/2000/svg" xmlns:xlink="http://www.w3.org/1999/xlink" x="0px" y="0px"
	 width="230.4px" height="307.2px" viewBox="204.8 79.689 230.4 307.2" enable-background="new 204.8 79.689 230.4 307.2"
	 xml:space="preserve">
<path fill="#FF3B6D" d="M425.6,386.89c5.3,0,9.601-4.291,9.601-9.6V141.129c0-0.211-0.105-0.394-0.125-0.604
	c-0.058-0.864-0.221-1.699-0.509-2.515c-0.115-0.327-0.201-0.634-0.346-0.941c-0.432-0.921-0.988-1.786-1.719-2.544
	c-0.058-0.058-0.086-0.144-0.153-0.202c-0.01-0.01-0.02-0.029-0.028-0.048l-52.801-51.84c-0.797-0.777-1.728-1.344-2.707-1.805
	c-0.297-0.134-0.604-0.211-0.922-0.317c-0.815-0.278-1.65-0.451-2.515-0.509c-0.192-0.009-0.364-0.115-0.576-0.115H214.4
	c-5.299,0-9.6,4.292-9.6,9.6v288c0,5.309,4.301,9.6,9.6,9.6H425.6z M382.4,112.176l19.718,19.363H382.4V112.176z M224,98.89h139.2
	v42.24c0,5.309,4.301,9.6,9.6,9.6H416v216.96H224V98.89z"/>
<path fill="#FF3B6D" d="M388.938,234.922H255.891c-5.299,0-9.6,4.291-9.6,9.6s4.301,9.6,9.6,9.6h133.037c5.299,0,9.6-4.291,9.6-9.6
	S394.236,234.922,388.938,234.922z"/>
<path fill="#FF3B6D" d="M388.938,194.602H255.891c-5.299,0-9.6,4.291-9.6,9.6c0,5.309,4.301,9.6,9.6,9.6h133.037
	c5.299,0,9.6-4.292,9.6-9.6C398.527,198.893,394.236,194.602,388.938,194.602z"/>
<path fill="#FF3B6D" d="M388.938,275.232H255.891c-5.299,0-9.6,4.291-9.6,9.6s4.301,9.6,9.6,9.6h133.037c5.299,0,9.6-4.291,9.6-9.6
	S394.236,275.232,388.938,275.232z"/>
<path fill="#FF3B6D" d="M388.938,315.552H255.891c-5.299,0-9.6,4.291-9.6,9.601c0,5.309,4.301,9.6,9.6,9.6h133.037
	c5.299,0,9.6-4.291,9.6-9.6C398.527,319.843,394.236,315.552,388.938,315.552z"/>
</svg>
