<?xml version="1.0" encoding="utf-8"?>
<!-- Generator: Adobe Illustrator 16.0.0, SVG Export Plug-In . SVG Version: 6.00 Build 0)  -->
<!DOCTYPE svg PUBLIC "-//W3C//DTD SVG 1.1//EN" "http://www.w3.org/Graphics/SVG/1.1/DTD/svg11.dtd">
<svg version="1.1" id="Layer_1" xmlns="http://www.w3.org/2000/svg" xmlns:xlink="http://www.w3.org/1999/xlink" x="0px" y="0px"
	 width="82.094px" height="72px" viewBox="0 0 82.094 72" enable-background="new 0 0 82.094 72" xml:space="preserve">
<g id="_x37_7_Essential_Icons">
	<path id="Heart" fill="#FF3B6D" d="M39.661,71.4L6.762,38.8c-1.4-1.3-2.5-2.8-3.5-4.399c-5.4-8.9-4-20.3,3.5-27.7
		c4.3-4.3,10.1-6.7,16.199-6.7c9.601,0,15.601,5.6,18.101,8.8c2.5-3.2,8.5-8.8,18.1-8.8c6.102,0,11.9,2.4,16.2,6.7
		c7.4,7.4,8.9,18.8,3.5,27.7c-1,1.6-2.1,3.1-3.5,4.399L42.461,71.4C41.661,72.2,40.461,72.2,39.661,71.4z"/>
</g>
<g id="Guides">
</g>
</svg>
