<?xml version="1.0" encoding="utf-8"?>
<!-- Generator: Adobe Illustrator 16.0.0, SVG Export Plug-In . SVG Version: 6.00 Build 0)  -->
<!DOCTYPE svg PUBLIC "-//W3C//DTD SVG 1.1//EN" "http://www.w3.org/Graphics/SVG/1.1/DTD/svg11.dtd">
<svg version="1.1" id="Layer_1" xmlns="http://www.w3.org/2000/svg" xmlns:xlink="http://www.w3.org/1999/xlink" x="0px" y="0px"
	 width="82.094px" height="72px" viewBox="8.938 14 82.094 72" enable-background="new 8.938 14 82.094 72" xml:space="preserve">
<g id="_x37_7_Essential_Icons">
	<path id="Heart" fill="#FF3B6D" d="M48.6,85.4L15.7,52.8c-1.4-1.3-2.5-2.8-3.5-4.4c-5.4-8.9-4-20.3,3.5-27.7
		C20,16.4,25.8,14,31.9,14c9.6,0,15.6,5.6,18.1,8.8c2.5-3.2,8.5-8.8,18.1-8.8c6.101,0,11.9,2.4,16.2,6.7c7.4,7.4,8.9,18.8,3.5,27.7
		c-1,1.6-2.1,3.1-3.5,4.4L51.4,85.4C50.6,86.2,49.4,86.2,48.6,85.4z M31.9,18c-5.1,0-9.8,2-13.4,5.5c-6.1,6.1-7.3,15.5-2.9,22.8
		c0.8,1.3,1.8,2.6,2.9,3.7L50,81.2L81.5,50c1.1-1.1,2.1-2.3,2.9-3.7c4.399-7.4,3.3-16.8-2.9-22.8C77.9,20,73.1,18,68.1,18
		C60.9,18,54.9,21.9,51.7,27.3c-0.8,1.3-2.7,1.3-3.5,0C45.1,21.9,39.1,18,31.9,18z"/>
</g>
<g id="Guides">
</g>
<g id="Info">
	<g id="BORDER">
		<path fill="#0000FF" d="M944-370v1684H-840V-370H944 M952-378H-848v1700H952V-378L952-378z"/>
	</g>
</g>
</svg>
