<?xml version="1.0" encoding="utf-8"?>
<!-- Generator: Adobe Illustrator 16.0.0, SVG Export Plug-In . SVG Version: 6.00 Build 0)  -->
<!DOCTYPE svg PUBLIC "-//W3C//DTD SVG 1.1//EN" "http://www.w3.org/Graphics/SVG/1.1/DTD/svg11.dtd">
<svg version="1.1" id="Layer_1" xmlns="http://www.w3.org/2000/svg" xmlns:xlink="http://www.w3.org/1999/xlink" x="0px" y="0px"
	 width="230.4px" height="307.19px" viewBox="207.19 82.512 230.4 307.19" enable-background="new 207.19 82.512 230.4 307.19"
	 xml:space="preserve">
<path fill="#FF3B6D" d="M314.528,385.469c1.786,2.649,4.771,4.233,7.958,4.233l0,0c3.197,0,6.183-1.594,7.959-4.233l90.585-134.572
	c10.829-17.271,16.561-37.104,16.561-57.37c0-61.209-51.677-111.014-115.2-111.014s-115.2,49.805-115.2,111.014
	c0,20.294,5.75,40.167,16.791,57.716L314.528,385.469z M322.4,101.702c52.934,0,96,41.194,96,91.814
	c0,16.646-4.714,32.957-13.459,46.906l-82.465,122.496L240.07,240.749c-8.947-14.228-13.67-30.557-13.67-47.232
	C226.4,142.896,269.466,101.702,322.4,101.702z"/>
<path fill="#FF3B6D" d="M322.4,245.914c30.096,0,54.585-23.684,54.585-52.8s-24.479-52.8-54.585-52.8
	c-30.106,0-54.586,23.684-54.586,52.8S292.304,245.914,322.4,245.914z M322.4,159.514c19.507,0,35.385,15.072,35.385,33.6
	c0,18.528-15.868,33.6-35.385,33.6c-19.517,0-35.386-15.072-35.386-33.6C287.014,174.585,302.893,159.514,322.4,159.514z"/>
</svg>
