<?xml version="1.0" encoding="utf-8"?>
<!-- Generator: Adobe Illustrator 16.0.0, SVG Export Plug-In . SVG Version: 6.00 Build 0)  -->
<!DOCTYPE svg PUBLIC "-//W3C//DTD SVG 1.1//EN" "http://www.w3.org/Graphics/SVG/1.1/DTD/svg11.dtd">
<svg version="1.1" id="Layer_1" xmlns="http://www.w3.org/2000/svg" xmlns:xlink="http://www.w3.org/1999/xlink" x="0px" y="0px"
	 width="265.968px" height="307.201px" viewBox="169.904 89.28 265.968 307.201"
	 enable-background="new 169.904 89.28 265.968 307.201" xml:space="preserve">
<path fill="#FF3B6D" d="M388.563,183.869c26.084,0,47.3-21.216,47.3-47.29c0-26.083-21.216-47.299-47.3-47.299
	c-26.072,0-47.289,21.216-47.289,47.299c0,6.134,1.258,11.952,3.398,17.338l-93.945,54.489c-8.573-8.64-20.438-14.006-33.533-14.006
	c-26.073,0-47.29,21.216-47.29,47.29c0,26.084,21.216,47.299,47.29,47.299c13.296,0,25.287-5.567,33.888-14.438l93.159,58.713
	c-1.805,5.002-2.957,10.311-2.957,15.927c0,26.073,21.216,47.29,47.289,47.29c26.084,0,47.3-21.217,47.3-47.29
	c0-26.083-21.216-47.299-47.3-47.299c-13.555,0-25.709,5.808-34.339,14.976l-92.918-58.569c1.958-5.194,3.168-10.753,3.168-16.618
	c0-6.057-1.248-11.798-3.332-17.126l94.032-54.538C363.729,178.579,375.536,183.869,388.563,183.869z M388.563,321.101
	c15.495,0,28.1,12.605,28.1,28.1c0,15.484-12.604,28.09-28.1,28.09c-15.484,0-28.089-12.605-28.089-28.09
	c0-5.165,1.497-9.945,3.937-14.103c0.076-0.105,0.172-0.183,0.249-0.298c0.105-0.163,0.105-0.354,0.202-0.519
	C369.824,326.391,378.561,321.101,388.563,321.101z M217.184,269.799c-15.485,0-28.09-12.605-28.09-28.1
	c0-15.485,12.605-28.09,28.09-28.09c9.158,0,17.232,4.474,22.368,11.28c0.135,0.307,0.144,0.634,0.317,0.921
	c0.451,0.788,1.008,1.469,1.632,2.074c2.333,4.099,3.782,8.765,3.782,13.805c0,5.511-1.651,10.627-4.406,14.967
	c-0.02,0.028-0.048,0.038-0.067,0.066c-0.039,0.059-0.029,0.115-0.067,0.174C235.722,264.643,227.063,269.799,217.184,269.799z
	 M388.563,108.49c15.495,0,28.1,12.604,28.1,28.099c0,15.485-12.604,28.089-28.1,28.089c-15.484,0-28.089-12.604-28.089-28.089
	C360.474,121.085,373.068,108.49,388.563,108.49z"/>
</svg>
