<?xml version="1.0" encoding="utf-8"?>
<!-- Generator: Adobe Illustrator 16.0.0, SVG Export Plug-In . SVG Version: 6.00 Build 0)  -->
<!DOCTYPE svg PUBLIC "-//W3C//DTD SVG 1.1//EN" "http://www.w3.org/Graphics/SVG/1.1/DTD/svg11.dtd">
<svg version="1.1" id="Layer_1" xmlns="http://www.w3.org/2000/svg" xmlns:xlink="http://www.w3.org/1999/xlink" x="0px" y="0px"
	 width="93.989px" height="78.695px" viewBox="0 0 93.989 78.695" enable-background="new 0 0 93.989 78.695" xml:space="preserve">
<path id="Twitter" fill="#5EAADE" d="M90.73,1.502c-3.757,2.257-7.768,4.011-12.278,4.761C74.938,2.506,69.932,0,64.415,0
	C53.886,0,45.116,8.77,45.116,19.799c0,1.502,0.249,3.007,0.498,4.51C29.58,23.56,15.542,15.537,6.02,3.76
	c-1.753,3.007-2.512,6.263-2.512,10.022c0,6.767,3.514,12.784,8.521,16.544c-3.253,0-6.009-1.004-8.77-2.506v0.249
	c0,9.524,6.518,17.545,15.537,19.299c-1.5,0.5-3.253,0.752-5.008,0.752c-1.25,0-2.506,0-3.513-0.252
	c2.512,7.771,9.528,13.534,18.049,13.786c-6.518,5.261-14.79,8.521-23.808,8.521c-1.505,0-3.01,0-4.516-0.252
	c8.521,5.514,18.547,8.772,29.58,8.772c35.339,0,54.881-30.074,54.881-56.141c0-0.752,0-1.753,0-2.506
	c3.763-2.755,7.021-6.266,9.528-10.274c-3.508,1.502-7.27,2.755-11.027,3.007C86.214,10.023,89.225,6.263,90.73,1.502z"/>
</svg>
